<svg id="visual" viewBox="0 0 960 540" width="960" height="540" xmlns="http://www.w3.org/2000/svg" xmlns:xlink="http://www.w3.org/1999/xlink" version="1.1"><rect x="0" y="0" width="960" height="540" fill="#002948"></rect><defs><linearGradient id="grad1_0" x1="43.8%" y1="0%" x2="100%" y2="100%"><stop offset="14.444444444444446%" stop-color="#034272" stop-opacity="1"></stop><stop offset="85.55555555555554%" stop-color="#034272" stop-opacity="1"></stop></linearGradient></defs><defs><linearGradient id="grad1_1" x1="43.8%" y1="0%" x2="100%" y2="100%"><stop offset="14.444444444444446%" stop-color="#034272" stop-opacity="1"></stop><stop offset="85.55555555555554%" stop-color="#023e6b" stop-opacity="1"></stop></linearGradient></defs><defs><linearGradient id="grad1_2" x1="43.8%" y1="0%" x2="100%" y2="100%"><stop offset="14.444444444444446%" stop-color="#013a64" stop-opacity="1"></stop><stop offset="85.55555555555554%" stop-color="#023e6b" stop-opacity="1"></stop></linearGradient></defs><defs><linearGradient id="grad1_3" x1="43.8%" y1="0%" x2="100%" y2="100%"><stop offset="14.444444444444446%" stop-color="#013a64" stop-opacity="1"></stop><stop offset="85.55555555555554%" stop-color="#00355d" stop-opacity="1"></stop></linearGradient></defs><defs><linearGradient id="grad1_4" x1="43.8%" y1="0%" x2="100%" y2="100%"><stop offset="14.444444444444446%" stop-color="#003156" stop-opacity="1"></stop><stop offset="85.55555555555554%" stop-color="#00355d" stop-opacity="1"></stop></linearGradient></defs><defs><linearGradient id="grad1_5" x1="43.8%" y1="0%" x2="100%" y2="100%"><stop offset="14.444444444444446%" stop-color="#003156" stop-opacity="1"></stop><stop offset="85.55555555555554%" stop-color="#002d4f" stop-opacity="1"></stop></linearGradient></defs><defs><linearGradient id="grad1_6" x1="43.8%" y1="0%" x2="100%" y2="100%"><stop offset="14.444444444444446%" stop-color="#002948" stop-opacity="1"></stop><stop offset="85.55555555555554%" stop-color="#002d4f" stop-opacity="1"></stop></linearGradient></defs><defs><linearGradient id="grad2_0" x1="0%" y1="0%" x2="56.3%" y2="100%"><stop offset="14.444444444444446%" stop-color="#034272" stop-opacity="1"></stop><stop offset="85.55555555555554%" stop-color="#034272" stop-opacity="1"></stop></linearGradient></defs><defs><linearGradient id="grad2_1" x1="0%" y1="0%" x2="56.3%" y2="100%"><stop offset="14.444444444444446%" stop-color="#023e6b" stop-opacity="1"></stop><stop offset="85.55555555555554%" stop-color="#034272" stop-opacity="1"></stop></linearGradient></defs><defs><linearGradient id="grad2_2" x1="0%" y1="0%" x2="56.3%" y2="100%"><stop offset="14.444444444444446%" stop-color="#023e6b" stop-opacity="1"></stop><stop offset="85.55555555555554%" stop-color="#013a64" stop-opacity="1"></stop></linearGradient></defs><defs><linearGradient id="grad2_3" x1="0%" y1="0%" x2="56.3%" y2="100%"><stop offset="14.444444444444446%" stop-color="#00355d" stop-opacity="1"></stop><stop offset="85.55555555555554%" stop-color="#013a64" stop-opacity="1"></stop></linearGradient></defs><defs><linearGradient id="grad2_4" x1="0%" y1="0%" x2="56.3%" y2="100%"><stop offset="14.444444444444446%" stop-color="#00355d" stop-opacity="1"></stop><stop offset="85.55555555555554%" stop-color="#003156" stop-opacity="1"></stop></linearGradient></defs><defs><linearGradient id="grad2_5" x1="0%" y1="0%" x2="56.3%" y2="100%"><stop offset="14.444444444444446%" stop-color="#002d4f" stop-opacity="1"></stop><stop offset="85.55555555555554%" stop-color="#003156" stop-opacity="1"></stop></linearGradient></defs><defs><linearGradient id="grad2_6" x1="0%" y1="0%" x2="56.3%" y2="100%"><stop offset="14.444444444444446%" stop-color="#002d4f" stop-opacity="1"></stop><stop offset="85.55555555555554%" stop-color="#002948" stop-opacity="1"></stop></linearGradient></defs><g transform="translate(960, 0)"><path d="M0 540C-78.1 541.2 -156.3 542.3 -206.6 498.9C-257 455.5 -279.7 367.5 -307.6 307.6C-335.5 247.7 -368.7 215.7 -408.4 169.1C-448 122.6 -494 61.3 -540 0L0 0Z" fill="#002b4b"></path><path d="M0 462.9C-67 463.8 -133.9 464.8 -177.1 427.6C-220.3 390.4 -239.7 315 -263.6 263.6C-287.6 212.3 -316.1 184.9 -350 145C-384 105 -423.4 52.5 -462.9 0L0 0Z" fill="#002f52"></path><path d="M0 385.7C-55.8 386.5 -111.6 387.4 -147.6 356.4C-183.6 325.3 -199.8 262.5 -219.7 219.7C-239.7 176.9 -263.4 154.1 -291.7 120.8C-320 87.5 -352.8 43.8 -385.7 0L0 0Z" fill="#003359"></path><path d="M0 308.6C-44.6 309.2 -89.3 309.9 -118.1 285.1C-146.9 260.3 -159.8 210 -175.8 175.8C-191.7 141.5 -210.7 123.3 -233.3 96.7C-256 70 -282.3 35 -308.6 0L0 0Z" fill="#013760"></path><path d="M0 231.4C-33.5 231.9 -67 232.4 -88.6 213.8C-110.2 195.2 -119.9 157.5 -131.8 131.8C-143.8 106.1 -158 92.5 -175 72.5C-192 52.5 -211.7 26.3 -231.4 0L0 0Z" fill="#013c67"></path><path d="M0 154.3C-22.3 154.6 -44.6 154.9 -59 142.5C-73.4 130.1 -79.9 105 -87.9 87.9C-95.9 70.8 -105.4 61.6 -116.7 48.3C-128 35 -141.1 17.5 -154.3 0L0 0Z" fill="#02406e"></path><path d="M0 77.1C-11.2 77.3 -22.3 77.5 -29.5 71.3C-36.7 65.1 -40 52.5 -43.9 43.9C-47.9 35.4 -52.7 30.8 -58.3 24.2C-64 17.5 -70.6 8.8 -77.1 0L0 0Z" fill="#034272"></path></g><g transform="translate(0, 540)"><path d="M0 -540C56.3 -495.4 112.6 -450.8 177.6 -428.7C242.5 -406.6 316.2 -407.1 374.1 -374.1C431.9 -341.1 473.9 -274.6 498.9 -206.6C523.9 -138.7 532 -69.4 540 0L0 0Z" fill="#002b4b"></path><path d="M0 -462.9C48.2 -424.6 96.5 -386.4 152.2 -367.4C207.9 -348.5 271.1 -348.9 320.6 -320.6C370.2 -292.3 406.2 -235.3 427.6 -177.1C449.1 -118.9 456 -59.5 462.9 0L0 0Z" fill="#002f52"></path><path d="M0 -385.7C40.2 -353.8 80.4 -322 126.8 -306.2C173.2 -290.4 225.9 -290.8 267.2 -267.2C308.5 -243.6 338.5 -196.1 356.4 -147.6C374.2 -99.1 380 -49.5 385.7 0L0 0Z" fill="#003359"></path><path d="M0 -308.6C32.2 -283.1 64.3 -257.6 101.5 -245C138.6 -232.3 180.7 -232.6 213.7 -213.7C246.8 -194.9 270.8 -156.9 285.1 -118.1C299.4 -79.3 304 -39.6 308.6 0L0 0Z" fill="#013760"></path><path d="M0 -231.4C24.1 -212.3 48.2 -193.2 76.1 -183.7C103.9 -174.3 135.5 -174.5 160.3 -160.3C185.1 -146.2 203.1 -117.7 213.8 -88.6C224.5 -59.5 228 -29.7 231.4 0L0 0Z" fill="#013c67"></path><path d="M0 -154.3C16.1 -141.5 32.2 -128.8 50.7 -122.5C69.3 -116.2 90.4 -116.3 106.9 -106.9C123.4 -97.4 135.4 -78.4 142.5 -59C149.7 -39.6 152 -19.8 154.3 0L0 0Z" fill="#02406e"></path><path d="M0 -77.1C8 -70.8 16.1 -64.4 25.4 -61.2C34.6 -58.1 45.2 -58.2 53.4 -53.4C61.7 -48.7 67.7 -39.2 71.3 -29.5C74.8 -19.8 76 -9.9 77.1 0L0 0Z" fill="#034272"></path></g></svg>