<svg id="visual" viewBox="0 0 960 540" width="960" height="540" xmlns="http://www.w3.org/2000/svg" xmlns:xlink="http://www.w3.org/1999/xlink" version="1.1"><rect x="0" y="0" width="960" height="540" fill="#002948"></rect><defs><linearGradient id="grad1_0" x1="43.8%" y1="100%" x2="100%" y2="0%"><stop offset="14.444444444444446%" stop-color="#003a66" stop-opacity="1"></stop><stop offset="85.55555555555554%" stop-color="#003a66" stop-opacity="1"></stop></linearGradient></defs><defs><linearGradient id="grad1_1" x1="43.8%" y1="100%" x2="100%" y2="0%"><stop offset="14.444444444444446%" stop-color="#003a66" stop-opacity="1"></stop><stop offset="85.55555555555554%" stop-color="#003761" stop-opacity="1"></stop></linearGradient></defs><defs><linearGradient id="grad1_2" x1="43.8%" y1="100%" x2="100%" y2="0%"><stop offset="14.444444444444446%" stop-color="#00345c" stop-opacity="1"></stop><stop offset="85.55555555555554%" stop-color="#003761" stop-opacity="1"></stop></linearGradient></defs><defs><linearGradient id="grad1_3" x1="43.8%" y1="100%" x2="100%" y2="0%"><stop offset="14.444444444444446%" stop-color="#00345c" stop-opacity="1"></stop><stop offset="85.55555555555554%" stop-color="#003157" stop-opacity="1"></stop></linearGradient></defs><defs><linearGradient id="grad1_4" x1="43.8%" y1="100%" x2="100%" y2="0%"><stop offset="14.444444444444446%" stop-color="#002f52" stop-opacity="1"></stop><stop offset="85.55555555555554%" stop-color="#003157" stop-opacity="1"></stop></linearGradient></defs><defs><linearGradient id="grad1_5" x1="43.8%" y1="100%" x2="100%" y2="0%"><stop offset="14.444444444444446%" stop-color="#002f52" stop-opacity="1"></stop><stop offset="85.55555555555554%" stop-color="#002c4d" stop-opacity="1"></stop></linearGradient></defs><defs><linearGradient id="grad1_6" x1="43.8%" y1="100%" x2="100%" y2="0%"><stop offset="14.444444444444446%" stop-color="#002948" stop-opacity="1"></stop><stop offset="85.55555555555554%" stop-color="#002c4d" stop-opacity="1"></stop></linearGradient></defs><defs><linearGradient id="grad2_0" x1="0%" y1="100%" x2="56.3%" y2="0%"><stop offset="14.444444444444446%" stop-color="#003a66" stop-opacity="1"></stop><stop offset="85.55555555555554%" stop-color="#003a66" stop-opacity="1"></stop></linearGradient></defs><defs><linearGradient id="grad2_1" x1="0%" y1="100%" x2="56.3%" y2="0%"><stop offset="14.444444444444446%" stop-color="#003761" stop-opacity="1"></stop><stop offset="85.55555555555554%" stop-color="#003a66" stop-opacity="1"></stop></linearGradient></defs><defs><linearGradient id="grad2_2" x1="0%" y1="100%" x2="56.3%" y2="0%"><stop offset="14.444444444444446%" stop-color="#003761" stop-opacity="1"></stop><stop offset="85.55555555555554%" stop-color="#00345c" stop-opacity="1"></stop></linearGradient></defs><defs><linearGradient id="grad2_3" x1="0%" y1="100%" x2="56.3%" y2="0%"><stop offset="14.444444444444446%" stop-color="#003157" stop-opacity="1"></stop><stop offset="85.55555555555554%" stop-color="#00345c" stop-opacity="1"></stop></linearGradient></defs><defs><linearGradient id="grad2_4" x1="0%" y1="100%" x2="56.3%" y2="0%"><stop offset="14.444444444444446%" stop-color="#003157" stop-opacity="1"></stop><stop offset="85.55555555555554%" stop-color="#002f52" stop-opacity="1"></stop></linearGradient></defs><defs><linearGradient id="grad2_5" x1="0%" y1="100%" x2="56.3%" y2="0%"><stop offset="14.444444444444446%" stop-color="#002c4d" stop-opacity="1"></stop><stop offset="85.55555555555554%" stop-color="#002f52" stop-opacity="1"></stop></linearGradient></defs><defs><linearGradient id="grad2_6" x1="0%" y1="100%" x2="56.3%" y2="0%"><stop offset="14.444444444444446%" stop-color="#002c4d" stop-opacity="1"></stop><stop offset="85.55555555555554%" stop-color="#002948" stop-opacity="1"></stop></linearGradient></defs><g transform="translate(960, 540)"><path d="M-540 0C-531.1 -68.3 -522.3 -136.5 -498.9 -206.6C-475.5 -276.8 -437.6 -348.8 -378.3 -378.3C-319 -407.8 -238.4 -394.9 -171.8 -414.8C-105.2 -434.7 -52.6 -487.3 0 -540L0 0Z" fill="#002a4a"></path><path d="M-462.9 0C-455.3 -58.5 -447.7 -117 -427.6 -177.1C-407.6 -237.2 -375.1 -298.9 -324.3 -324.3C-273.5 -349.6 -204.4 -338.5 -147.3 -355.6C-90.2 -372.6 -45.1 -417.7 0 -462.9L0 0Z" fill="#002d4f"></path><path d="M-385.7 0C-379.4 -48.8 -373.1 -97.5 -356.4 -147.6C-339.6 -197.7 -312.5 -249.1 -270.2 -270.2C-227.9 -291.3 -170.3 -282.1 -122.7 -296.3C-75.2 -310.5 -37.6 -348.1 0 -385.7L0 0Z" fill="#003054"></path><path d="M-308.6 0C-303.5 -39 -298.5 -78 -285.1 -118.1C-271.7 -158.2 -250 -199.3 -216.2 -216.2C-182.3 -233.1 -136.2 -225.7 -98.2 -237C-60.1 -248.4 -30.1 -278.5 0 -308.6L0 0Z" fill="#003359"></path><path d="M-231.4 0C-227.6 -29.3 -223.8 -58.5 -213.8 -88.6C-203.8 -118.6 -187.5 -149.5 -162.1 -162.1C-136.7 -174.8 -102.2 -169.3 -73.6 -177.8C-45.1 -186.3 -22.5 -208.9 0 -231.4L0 0Z" fill="#00365e"></path><path d="M-154.3 0C-151.8 -19.5 -149.2 -39 -142.5 -59C-135.9 -79.1 -125 -99.6 -108.1 -108.1C-91.2 -116.5 -68.1 -112.8 -49.1 -118.5C-30.1 -124.2 -15 -139.2 0 -154.3L0 0Z" fill="#003963"></path><path d="M-77.1 0C-75.9 -9.8 -74.6 -19.5 -71.3 -29.5C-67.9 -39.5 -62.5 -49.8 -54 -54C-45.6 -58.3 -34.1 -56.4 -24.5 -59.3C-15 -62.1 -7.5 -69.6 0 -77.1L0 0Z" fill="#003a66"></path></g><g transform="translate(0, 0)"><path d="M540 0C539.8 78.9 539.5 157.9 498 206.3C456.4 254.7 373.5 272.5 323.1 323.1C272.8 373.8 255.1 457.3 206.6 498.9C158.2 540.5 79.1 540.3 0 540L0 0Z" fill="#002a4a"></path><path d="M462.9 0C462.7 67.7 462.5 135.3 426.8 176.8C391.2 218.3 320.1 233.6 277 277C233.8 320.4 218.6 392 177.1 427.6C135.6 463.3 67.8 463.1 0 462.9L0 0Z" fill="#002d4f"></path><path d="M385.7 0C385.6 56.4 385.4 112.8 355.7 147.3C326 181.9 266.8 194.6 230.8 230.8C194.9 267 182.2 326.6 147.6 356.4C113 386.1 56.5 385.9 0 385.7L0 0Z" fill="#003054"></path><path d="M308.6 0C308.4 45.1 308.3 90.2 284.6 117.9C260.8 145.5 213.4 155.7 184.7 184.7C155.9 213.6 145.8 261.3 118.1 285.1C90.4 308.9 45.2 308.7 0 308.6L0 0Z" fill="#003359"></path><path d="M231.4 0C231.3 33.8 231.2 67.7 213.4 88.4C195.6 109.1 160.1 116.8 138.5 138.5C116.9 160.2 109.3 196 88.6 213.8C67.8 231.6 33.9 231.5 0 231.4L0 0Z" fill="#00365e"></path><path d="M154.3 0C154.2 22.6 154.2 45.1 142.3 58.9C130.4 72.8 106.7 77.9 92.3 92.3C77.9 106.8 72.9 130.7 59 142.5C45.2 154.4 22.6 154.4 0 154.3L0 0Z" fill="#003963"></path><path d="M77.1 0C77.1 11.3 77.1 22.6 71.1 29.5C65.2 36.4 53.4 38.9 46.2 46.2C39 53.4 36.4 65.3 29.5 71.3C22.6 77.2 11.3 77.2 0 77.1L0 0Z" fill="#003a66"></path></g></svg>