<svg id="visual" viewBox="0 0 960 540" width="960" height="540" xmlns="http://www.w3.org/2000/svg" xmlns:xlink="http://www.w3.org/1999/xlink" version="1.1"><rect x="0" y="0" width="960" height="540" fill="#002948"></rect><defs><linearGradient id="grad1_0" x1="43.8%" y1="100%" x2="100%" y2="0%"><stop offset="14.444444444444446%" stop-color="#044374" stop-opacity="1"></stop><stop offset="85.55555555555554%" stop-color="#044374" stop-opacity="1"></stop></linearGradient></defs><defs><linearGradient id="grad1_1" x1="43.8%" y1="100%" x2="100%" y2="0%"><stop offset="14.444444444444446%" stop-color="#044374" stop-opacity="1"></stop><stop offset="85.55555555555554%" stop-color="#023f6c" stop-opacity="1"></stop></linearGradient></defs><defs><linearGradient id="grad1_2" x1="43.8%" y1="100%" x2="100%" y2="0%"><stop offset="14.444444444444446%" stop-color="#013a65" stop-opacity="1"></stop><stop offset="85.55555555555554%" stop-color="#023f6c" stop-opacity="1"></stop></linearGradient></defs><defs><linearGradient id="grad1_3" x1="43.8%" y1="100%" x2="100%" y2="0%"><stop offset="14.444444444444446%" stop-color="#013a65" stop-opacity="1"></stop><stop offset="85.55555555555554%" stop-color="#01365e" stop-opacity="1"></stop></linearGradient></defs><defs><linearGradient id="grad1_4" x1="43.8%" y1="100%" x2="100%" y2="0%"><stop offset="14.444444444444446%" stop-color="#003156" stop-opacity="1"></stop><stop offset="85.55555555555554%" stop-color="#01365e" stop-opacity="1"></stop></linearGradient></defs><defs><linearGradient id="grad1_5" x1="43.8%" y1="100%" x2="100%" y2="0%"><stop offset="14.444444444444446%" stop-color="#003156" stop-opacity="1"></stop><stop offset="85.55555555555554%" stop-color="#002d4f" stop-opacity="1"></stop></linearGradient></defs><defs><linearGradient id="grad1_6" x1="43.8%" y1="100%" x2="100%" y2="0%"><stop offset="14.444444444444446%" stop-color="#002948" stop-opacity="1"></stop><stop offset="85.55555555555554%" stop-color="#002d4f" stop-opacity="1"></stop></linearGradient></defs><defs><linearGradient id="grad2_0" x1="0%" y1="100%" x2="56.3%" y2="0%"><stop offset="14.444444444444446%" stop-color="#044374" stop-opacity="1"></stop><stop offset="85.55555555555554%" stop-color="#044374" stop-opacity="1"></stop></linearGradient></defs><defs><linearGradient id="grad2_1" x1="0%" y1="100%" x2="56.3%" y2="0%"><stop offset="14.444444444444446%" stop-color="#023f6c" stop-opacity="1"></stop><stop offset="85.55555555555554%" stop-color="#044374" stop-opacity="1"></stop></linearGradient></defs><defs><linearGradient id="grad2_2" x1="0%" y1="100%" x2="56.3%" y2="0%"><stop offset="14.444444444444446%" stop-color="#023f6c" stop-opacity="1"></stop><stop offset="85.55555555555554%" stop-color="#013a65" stop-opacity="1"></stop></linearGradient></defs><defs><linearGradient id="grad2_3" x1="0%" y1="100%" x2="56.3%" y2="0%"><stop offset="14.444444444444446%" stop-color="#01365e" stop-opacity="1"></stop><stop offset="85.55555555555554%" stop-color="#013a65" stop-opacity="1"></stop></linearGradient></defs><defs><linearGradient id="grad2_4" x1="0%" y1="100%" x2="56.3%" y2="0%"><stop offset="14.444444444444446%" stop-color="#01365e" stop-opacity="1"></stop><stop offset="85.55555555555554%" stop-color="#003156" stop-opacity="1"></stop></linearGradient></defs><defs><linearGradient id="grad2_5" x1="0%" y1="100%" x2="56.3%" y2="0%"><stop offset="14.444444444444446%" stop-color="#002d4f" stop-opacity="1"></stop><stop offset="85.55555555555554%" stop-color="#003156" stop-opacity="1"></stop></linearGradient></defs><defs><linearGradient id="grad2_6" x1="0%" y1="100%" x2="56.3%" y2="0%"><stop offset="14.444444444444446%" stop-color="#002d4f" stop-opacity="1"></stop><stop offset="85.55555555555554%" stop-color="#002948" stop-opacity="1"></stop></linearGradient></defs><g transform="translate(960, 540)"><path d="M-540 0C-548.8 -54.5 -557.6 -109 -521.6 -139.8C-485.6 -170.5 -404.8 -177.4 -381.1 -220C-357.3 -262.6 -390.5 -340.7 -367.7 -367.7C-344.9 -394.7 -266.2 -370.5 -218.5 -378.5C-170.8 -386.4 -154.2 -426.5 -122.9 -458.8C-91.7 -491.1 -45.8 -515.5 0 -540L0 0Z" fill="#002b4c"></path><path d="M-462.9 0C-470.4 -46.7 -477.9 -93.5 -447.1 -119.8C-416.2 -146.1 -347 -152.1 -326.6 -188.6C-306.2 -225 -334.7 -292 -315.2 -315.2C-295.7 -338.3 -228.2 -317.6 -187.3 -324.4C-146.4 -331.2 -132.2 -365.6 -105.4 -393.3C-78.6 -420.9 -39.3 -441.9 0 -462.9L0 0Z" fill="#002f53"></path><path d="M-385.7 0C-392 -38.9 -398.3 -77.9 -372.6 -99.8C-346.9 -121.8 -289.2 -126.7 -272.2 -157.1C-255.2 -187.5 -278.9 -243.4 -262.6 -262.6C-246.4 -281.9 -190.1 -264.6 -156.1 -270.3C-122 -276 -110.1 -304.7 -87.8 -327.7C-65.5 -350.8 -32.7 -368.2 0 -385.7L0 0Z" fill="#00345a"></path><path d="M-308.6 0C-313.6 -31.2 -318.6 -62.3 -298.1 -79.9C-277.5 -97.4 -231.3 -101.4 -217.7 -125.7C-204.2 -150 -223.1 -194.7 -210.1 -210.1C-197.1 -225.5 -152.1 -211.7 -124.9 -216.3C-97.6 -220.8 -88.1 -243.7 -70.3 -262.2C-52.4 -280.6 -26.2 -294.6 0 -308.6L0 0Z" fill="#013861"></path><path d="M-231.4 0C-235.2 -23.4 -239 -46.7 -223.5 -59.9C-208.1 -73.1 -173.5 -76 -163.3 -94.3C-153.1 -112.5 -167.3 -146 -157.6 -157.6C-147.8 -169.1 -114.1 -158.8 -93.6 -162.2C-73.2 -165.6 -66.1 -182.8 -52.7 -196.6C-39.3 -210.5 -19.6 -220.9 0 -231.4L0 0Z" fill="#023c69"></path><path d="M-154.3 0C-156.8 -15.6 -159.3 -31.2 -149 -39.9C-138.7 -48.7 -115.7 -50.7 -108.9 -62.9C-102.1 -75 -111.6 -97.3 -105.1 -105.1C-98.6 -112.8 -76.1 -105.9 -62.4 -108.1C-48.8 -110.4 -44.1 -121.9 -35.1 -131.1C-26.2 -140.3 -13.1 -147.3 0 -154.3L0 0Z" fill="#034170"></path><path d="M-77.1 0C-78.4 -7.8 -79.7 -15.6 -74.5 -20C-69.4 -24.4 -57.8 -25.3 -54.4 -31.4C-51 -37.5 -55.8 -48.7 -52.5 -52.5C-49.3 -56.4 -38 -52.9 -31.2 -54.1C-24.4 -55.2 -22 -60.9 -17.6 -65.5C-13.1 -70.2 -6.5 -73.6 0 -77.1L0 0Z" fill="#044374"></path></g><g transform="translate(0, 0)"><path d="M540 0C519.8 41.5 499.7 83 494.6 132.5C489.4 182.1 499.4 239.7 467.7 270C435.9 300.3 362.5 303.3 311.8 311.8C261.1 320.3 233.1 334.3 206 356.8C178.9 379.3 152.7 410.4 118.5 442.4C84.4 474.4 42.2 507.2 0 540L0 0Z" fill="#002b4c"></path><path d="M462.9 0C445.6 35.6 428.3 71.1 423.9 113.6C419.5 156.1 428 205.4 400.8 231.4C373.7 257.4 310.7 260 267.3 267.3C223.8 274.6 199.8 286.5 176.6 305.8C153.3 325.1 130.9 351.8 101.6 379.2C72.3 406.6 36.2 434.7 0 462.9L0 0Z" fill="#002f53"></path><path d="M385.7 0C371.3 29.6 356.9 59.3 353.3 94.7C349.6 130 356.7 171.2 334 192.9C311.4 214.5 259 216.7 222.7 222.7C186.5 228.8 166.5 238.8 147.1 254.9C127.8 270.9 109.1 293.2 84.7 316C60.3 338.8 30.1 362.3 0 385.7L0 0Z" fill="#00345a"></path><path d="M308.6 0C297 23.7 285.5 47.4 282.6 75.7C279.7 104 285.4 137 267.2 154.3C249.1 171.6 207.2 173.3 178.2 178.2C149.2 183 133.2 191 117.7 203.9C102.2 216.8 87.3 234.5 67.7 252.8C48.2 271.1 24.1 289.8 0 308.6L0 0Z" fill="#013861"></path><path d="M231.4 0C222.8 17.8 214.1 35.6 212 56.8C209.8 78 214 102.7 200.4 115.7C186.8 128.7 155.4 130 133.6 133.6C111.9 137.3 99.9 143.3 88.3 152.9C76.7 162.6 65.5 175.9 50.8 189.6C36.2 203.3 18.1 217.4 0 231.4L0 0Z" fill="#023c69"></path><path d="M154.3 0C148.5 11.9 142.8 23.7 141.3 37.9C139.8 52 142.7 68.5 133.6 77.1C124.6 85.8 103.6 86.7 89.1 89.1C74.6 91.5 66.6 95.5 58.9 101.9C51.1 108.4 43.6 117.3 33.9 126.4C24.1 135.5 12.1 144.9 0 154.3L0 0Z" fill="#034170"></path><path d="M77.1 0C74.3 5.9 71.4 11.9 70.7 18.9C69.9 26 71.3 34.2 66.8 38.6C62.3 42.9 51.8 43.3 44.5 44.5C37.3 45.8 33.3 47.8 29.4 51C25.6 54.2 21.8 58.6 16.9 63.2C12.1 67.8 6 72.5 0 77.1L0 0Z" fill="#044374"></path></g></svg>