<svg id="visual" viewBox="0 0 960 540" width="960" height="540" xmlns="http://www.w3.org/2000/svg" xmlns:xlink="http://www.w3.org/1999/xlink" version="1.1"><rect x="0" y="0" width="960" height="540" fill="#002948"></rect><defs><linearGradient id="grad1_0" x1="43.8%" y1="100%" x2="100%" y2="0%"><stop offset="14.444444444444446%" stop-color="#065d9f" stop-opacity="1"></stop><stop offset="85.55555555555554%" stop-color="#065d9f" stop-opacity="1"></stop></linearGradient></defs><defs><linearGradient id="grad1_1" x1="43.8%" y1="100%" x2="100%" y2="0%"><stop offset="14.444444444444446%" stop-color="#065d9f" stop-opacity="1"></stop><stop offset="85.55555555555554%" stop-color="#025490" stop-opacity="1"></stop></linearGradient></defs><defs><linearGradient id="grad1_2" x1="43.8%" y1="100%" x2="100%" y2="0%"><stop offset="14.444444444444446%" stop-color="#004b81" stop-opacity="1"></stop><stop offset="85.55555555555554%" stop-color="#025490" stop-opacity="1"></stop></linearGradient></defs><defs><linearGradient id="grad1_3" x1="43.8%" y1="100%" x2="100%" y2="0%"><stop offset="14.444444444444446%" stop-color="#004b81" stop-opacity="1"></stop><stop offset="85.55555555555554%" stop-color="#004272" stop-opacity="1"></stop></linearGradient></defs><defs><linearGradient id="grad1_4" x1="43.8%" y1="100%" x2="100%" y2="0%"><stop offset="14.444444444444446%" stop-color="#003a64" stop-opacity="1"></stop><stop offset="85.55555555555554%" stop-color="#004272" stop-opacity="1"></stop></linearGradient></defs><defs><linearGradient id="grad1_5" x1="43.8%" y1="100%" x2="100%" y2="0%"><stop offset="14.444444444444446%" stop-color="#003a64" stop-opacity="1"></stop><stop offset="85.55555555555554%" stop-color="#003156" stop-opacity="1"></stop></linearGradient></defs><defs><linearGradient id="grad1_6" x1="43.8%" y1="100%" x2="100%" y2="0%"><stop offset="14.444444444444446%" stop-color="#002948" stop-opacity="1"></stop><stop offset="85.55555555555554%" stop-color="#003156" stop-opacity="1"></stop></linearGradient></defs><defs><linearGradient id="grad2_0" x1="0%" y1="100%" x2="56.3%" y2="0%"><stop offset="14.444444444444446%" stop-color="#065d9f" stop-opacity="1"></stop><stop offset="85.55555555555554%" stop-color="#065d9f" stop-opacity="1"></stop></linearGradient></defs><defs><linearGradient id="grad2_1" x1="0%" y1="100%" x2="56.3%" y2="0%"><stop offset="14.444444444444446%" stop-color="#025490" stop-opacity="1"></stop><stop offset="85.55555555555554%" stop-color="#065d9f" stop-opacity="1"></stop></linearGradient></defs><defs><linearGradient id="grad2_2" x1="0%" y1="100%" x2="56.3%" y2="0%"><stop offset="14.444444444444446%" stop-color="#025490" stop-opacity="1"></stop><stop offset="85.55555555555554%" stop-color="#004b81" stop-opacity="1"></stop></linearGradient></defs><defs><linearGradient id="grad2_3" x1="0%" y1="100%" x2="56.3%" y2="0%"><stop offset="14.444444444444446%" stop-color="#004272" stop-opacity="1"></stop><stop offset="85.55555555555554%" stop-color="#004b81" stop-opacity="1"></stop></linearGradient></defs><defs><linearGradient id="grad2_4" x1="0%" y1="100%" x2="56.3%" y2="0%"><stop offset="14.444444444444446%" stop-color="#004272" stop-opacity="1"></stop><stop offset="85.55555555555554%" stop-color="#003a64" stop-opacity="1"></stop></linearGradient></defs><defs><linearGradient id="grad2_5" x1="0%" y1="100%" x2="56.3%" y2="0%"><stop offset="14.444444444444446%" stop-color="#003156" stop-opacity="1"></stop><stop offset="85.55555555555554%" stop-color="#003a64" stop-opacity="1"></stop></linearGradient></defs><defs><linearGradient id="grad2_6" x1="0%" y1="100%" x2="56.3%" y2="0%"><stop offset="14.444444444444446%" stop-color="#003156" stop-opacity="1"></stop><stop offset="85.55555555555554%" stop-color="#002948" stop-opacity="1"></stop></linearGradient></defs><g transform="translate(960, 540)"><path d="M-540 0C-515.4 -45.4 -490.7 -90.9 -459.8 -123.2C-428.8 -155.5 -391.5 -174.8 -381.9 -220.5C-372.3 -266.2 -390.3 -338.5 -364.9 -364.9C-339.4 -391.3 -270.5 -371.9 -229 -396.6C-187.5 -421.4 -173.4 -490.3 -139.8 -521.6C-106.2 -552.9 -53.1 -546.4 0 -540L0 0Z" fill="#002d4f"></path><path d="M-462.9 0C-441.7 -38.9 -420.6 -77.9 -394.1 -105.6C-367.6 -133.3 -335.6 -149.8 -327.4 -189C-319.1 -228.2 -334.6 -290.1 -312.7 -312.7C-290.9 -335.4 -231.9 -318.7 -196.3 -340C-160.7 -361.2 -148.6 -420.3 -119.8 -447.1C-91 -473.9 -45.5 -468.4 0 -462.9L0 0Z" fill="#00355d"></path><path d="M-385.7 0C-368.1 -32.5 -350.5 -64.9 -328.4 -88C-306.3 -111.1 -279.7 -124.8 -272.8 -157.5C-265.9 -190.2 -278.8 -241.8 -260.6 -260.6C-242.4 -279.5 -193.2 -265.6 -163.6 -283.3C-133.9 -301 -123.8 -350.2 -99.8 -372.6C-75.8 -394.9 -37.9 -390.3 0 -385.7L0 0Z" fill="#003e6b"></path><path d="M-308.6 0C-294.5 -26 -280.4 -51.9 -262.7 -70.4C-245 -88.9 -223.7 -99.9 -218.2 -126C-212.7 -152.1 -223 -193.4 -208.5 -208.5C-194 -223.6 -154.6 -212.5 -130.9 -226.7C-107.1 -240.8 -99.1 -280.2 -79.9 -298.1C-60.7 -315.9 -30.3 -312.2 0 -308.6L0 0Z" fill="#004779"></path><path d="M-231.4 0C-220.9 -19.5 -210.3 -38.9 -197 -52.8C-183.8 -66.7 -167.8 -74.9 -163.7 -94.5C-159.6 -114.1 -167.3 -145.1 -156.4 -156.4C-145.5 -167.7 -115.9 -159.4 -98.1 -170C-80.4 -180.6 -74.3 -210.1 -59.9 -223.5C-45.5 -236.9 -22.7 -234.2 0 -231.4L0 0Z" fill="#014f88"></path><path d="M-154.3 0C-147.2 -13 -140.2 -26 -131.4 -35.2C-122.5 -44.4 -111.9 -49.9 -109.1 -63C-106.4 -76.1 -111.5 -96.7 -104.2 -104.2C-97 -111.8 -77.3 -106.2 -65.4 -113.3C-53.6 -120.4 -49.5 -140.1 -39.9 -149C-30.3 -158 -15.2 -156.1 0 -154.3L0 0Z" fill="#045897"></path><path d="M-77.1 0C-73.6 -6.5 -70.1 -13 -65.7 -17.6C-61.3 -22.2 -55.9 -25 -54.6 -31.5C-53.2 -38 -55.8 -48.4 -52.1 -52.1C-48.5 -55.9 -38.6 -53.1 -32.7 -56.7C-26.8 -60.2 -24.8 -70 -20 -74.5C-15.2 -79 -7.6 -78.1 0 -77.1L0 0Z" fill="#065d9f"></path></g><g transform="translate(0, 0)"><path d="M540 0C480.3 33.4 420.6 66.8 409.6 109.7C398.5 152.7 436 205.2 440.8 254.5C445.7 303.8 417.9 349.8 381.8 381.8C345.8 413.9 301.5 431.9 259 448.6C216.5 465.3 175.7 480.5 132.8 495.5C89.9 510.5 44.9 525.3 0 540L0 0Z" fill="#002d4f"></path><path d="M462.9 0C411.7 28.6 360.6 57.2 351 94.1C341.5 130.9 373.7 175.9 377.8 218.1C382 260.4 358.2 299.8 327.3 327.3C296.4 354.8 258.5 370.2 222 384.5C185.5 398.8 150.6 411.9 113.8 424.7C77.1 437.6 38.5 450.2 0 462.9L0 0Z" fill="#00355d"></path><path d="M385.7 0C343.1 23.9 300.5 47.7 292.5 78.4C284.6 109.1 311.4 146.6 314.9 181.8C318.3 217 298.5 249.9 272.7 272.7C247 295.6 215.4 308.5 185 320.4C154.6 332.3 125.5 343.2 94.8 353.9C64.2 364.7 32.1 375.2 0 385.7L0 0Z" fill="#003e6b"></path><path d="M308.6 0C274.5 19.1 240.4 38.2 234 62.7C227.7 87.3 249.1 117.3 251.9 145.4C254.7 173.6 238.8 199.9 218.2 218.2C197.6 236.5 172.3 246.8 148 256.3C123.7 265.9 100.4 274.6 75.9 283.2C51.4 291.7 25.7 300.1 0 308.6L0 0Z" fill="#004779"></path><path d="M231.4 0C205.9 14.3 180.3 28.6 175.5 47C170.8 65.4 186.8 88 188.9 109.1C191 130.2 179.1 149.9 163.6 163.6C148.2 177.4 129.2 185.1 111 192.3C92.8 199.4 75.3 205.9 56.9 212.4C38.5 218.8 19.3 225.1 0 231.4L0 0Z" fill="#014f88"></path><path d="M154.3 0C137.2 9.5 120.2 19.1 117 31.4C113.8 43.6 124.6 58.6 125.9 72.7C127.3 86.8 119.4 99.9 109.1 109.1C98.8 118.3 86.2 123.4 74 128.2C61.8 132.9 50.2 137.3 37.9 141.6C25.7 145.9 12.8 150.1 0 154.3L0 0Z" fill="#045897"></path><path d="M77.1 0C68.6 4.8 60.1 9.5 58.5 15.7C56.9 21.8 62.3 29.3 63 36.4C63.7 43.4 59.7 50 54.5 54.5C49.4 59.1 43.1 61.7 37 64.1C30.9 66.5 25.1 68.6 19 70.8C12.8 72.9 6.4 75 0 77.1L0 0Z" fill="#065d9f"></path></g></svg>