<svg id="visual" viewBox="0 0 960 540" width="960" height="540" xmlns="http://www.w3.org/2000/svg" xmlns:xlink="http://www.w3.org/1999/xlink" version="1.1"><rect x="0" y="0" width="960" height="540" fill="#002948"></rect><defs><linearGradient id="grad1_0" x1="43.8%" y1="0%" x2="100%" y2="100%"><stop offset="14.444444444444446%" stop-color="#0570c1" stop-opacity="1"></stop><stop offset="85.55555555555554%" stop-color="#0570c1" stop-opacity="1"></stop></linearGradient></defs><defs><linearGradient id="grad1_1" x1="43.8%" y1="0%" x2="100%" y2="100%"><stop offset="14.444444444444446%" stop-color="#0570c1" stop-opacity="1"></stop><stop offset="85.55555555555554%" stop-color="#0064ac" stop-opacity="1"></stop></linearGradient></defs><defs><linearGradient id="grad1_2" x1="43.8%" y1="0%" x2="100%" y2="100%"><stop offset="14.444444444444446%" stop-color="#005797" stop-opacity="1"></stop><stop offset="85.55555555555554%" stop-color="#0064ac" stop-opacity="1"></stop></linearGradient></defs><defs><linearGradient id="grad1_3" x1="43.8%" y1="0%" x2="100%" y2="100%"><stop offset="14.444444444444446%" stop-color="#005797" stop-opacity="1"></stop><stop offset="85.55555555555554%" stop-color="#004b82" stop-opacity="1"></stop></linearGradient></defs><defs><linearGradient id="grad1_4" x1="43.8%" y1="0%" x2="100%" y2="100%"><stop offset="14.444444444444446%" stop-color="#00406e" stop-opacity="1"></stop><stop offset="85.55555555555554%" stop-color="#004b82" stop-opacity="1"></stop></linearGradient></defs><defs><linearGradient id="grad1_5" x1="43.8%" y1="0%" x2="100%" y2="100%"><stop offset="14.444444444444446%" stop-color="#00406e" stop-opacity="1"></stop><stop offset="85.55555555555554%" stop-color="#00345b" stop-opacity="1"></stop></linearGradient></defs><defs><linearGradient id="grad1_6" x1="43.8%" y1="0%" x2="100%" y2="100%"><stop offset="14.444444444444446%" stop-color="#002948" stop-opacity="1"></stop><stop offset="85.55555555555554%" stop-color="#00345b" stop-opacity="1"></stop></linearGradient></defs><defs><linearGradient id="grad2_0" x1="0%" y1="0%" x2="56.3%" y2="100%"><stop offset="14.444444444444446%" stop-color="#0570c1" stop-opacity="1"></stop><stop offset="85.55555555555554%" stop-color="#0570c1" stop-opacity="1"></stop></linearGradient></defs><defs><linearGradient id="grad2_1" x1="0%" y1="0%" x2="56.3%" y2="100%"><stop offset="14.444444444444446%" stop-color="#0064ac" stop-opacity="1"></stop><stop offset="85.55555555555554%" stop-color="#0570c1" stop-opacity="1"></stop></linearGradient></defs><defs><linearGradient id="grad2_2" x1="0%" y1="0%" x2="56.3%" y2="100%"><stop offset="14.444444444444446%" stop-color="#0064ac" stop-opacity="1"></stop><stop offset="85.55555555555554%" stop-color="#005797" stop-opacity="1"></stop></linearGradient></defs><defs><linearGradient id="grad2_3" x1="0%" y1="0%" x2="56.3%" y2="100%"><stop offset="14.444444444444446%" stop-color="#004b82" stop-opacity="1"></stop><stop offset="85.55555555555554%" stop-color="#005797" stop-opacity="1"></stop></linearGradient></defs><defs><linearGradient id="grad2_4" x1="0%" y1="0%" x2="56.3%" y2="100%"><stop offset="14.444444444444446%" stop-color="#004b82" stop-opacity="1"></stop><stop offset="85.55555555555554%" stop-color="#00406e" stop-opacity="1"></stop></linearGradient></defs><defs><linearGradient id="grad2_5" x1="0%" y1="0%" x2="56.3%" y2="100%"><stop offset="14.444444444444446%" stop-color="#00345b" stop-opacity="1"></stop><stop offset="85.55555555555554%" stop-color="#00406e" stop-opacity="1"></stop></linearGradient></defs><defs><linearGradient id="grad2_6" x1="0%" y1="0%" x2="56.3%" y2="100%"><stop offset="14.444444444444446%" stop-color="#00345b" stop-opacity="1"></stop><stop offset="85.55555555555554%" stop-color="#002948" stop-opacity="1"></stop></linearGradient></defs><g transform="translate(960, 0)"><path d="M0 540C-66.8 549 -133.7 558 -166.9 513.6C-200.1 469.1 -199.6 371.1 -243.9 335.7C-288.3 300.3 -377.4 327.5 -420.7 305.6C-464 283.8 -461.4 213 -473.6 153.9C-485.9 94.8 -512.9 47.4 -540 0L0 0Z" fill="#002f51"></path><path d="M0 462.9C-57.3 470.6 -114.6 478.3 -143 440.2C-171.5 402.1 -171.1 318.1 -209.1 287.8C-247.1 257.4 -323.5 280.7 -360.6 262C-397.7 243.3 -395.5 182.6 -406 131.9C-416.5 81.2 -439.7 40.6 -462.9 0L0 0Z" fill="#003a64"></path><path d="M0 385.7C-47.7 392.2 -95.5 398.6 -119.2 366.8C-142.9 335.1 -142.6 265.1 -174.2 239.8C-205.9 214.5 -269.6 233.9 -300.5 218.3C-331.4 202.7 -329.6 152.1 -338.3 109.9C-347 67.7 -366.4 33.9 -385.7 0L0 0Z" fill="#004578"></path><path d="M0 308.6C-38.2 313.7 -76.4 318.9 -95.4 293.5C-114.3 268.1 -114.1 212.1 -139.4 191.9C-164.7 171.6 -215.7 187.1 -240.4 174.7C-265.1 162.2 -263.6 121.7 -270.6 87.9C-277.6 54.2 -293.1 27.1 -308.6 0L0 0Z" fill="#00518c"></path><path d="M0 231.4C-28.6 235.3 -57.3 239.2 -71.5 220.1C-85.7 201 -85.5 159.1 -104.5 143.9C-123.5 128.7 -161.7 140.4 -180.3 131C-198.8 121.6 -197.7 91.3 -203 66C-208.2 40.6 -219.8 20.3 -231.4 0L0 0Z" fill="#005da1"></path><path d="M0 154.3C-19.1 156.9 -38.2 159.4 -47.7 146.7C-57.2 134 -57 106 -69.7 95.9C-82.4 85.8 -107.8 93.6 -120.2 87.3C-132.6 81.1 -131.8 60.9 -135.3 44C-138.8 27.1 -146.6 13.5 -154.3 0L0 0Z" fill="#016ab6"></path><path d="M0 77.1C-9.5 78.4 -19.1 79.7 -23.8 73.4C-28.6 67 -28.5 53 -34.8 48C-41.2 42.9 -53.9 46.8 -60.1 43.7C-66.3 40.5 -65.9 30.4 -67.7 22C-69.4 13.5 -73.3 6.8 -77.1 0L0 0Z" fill="#0570c1"></path></g><g transform="translate(0, 540)"><path d="M0 -540C63.1 -544.6 126.1 -549.2 166.9 -513.6C207.6 -478 226 -402.2 261.6 -360C297.2 -317.9 350 -309.3 385.1 -279.8C420.2 -250.2 437.5 -199.7 460.3 -149.6C483.2 -99.4 511.6 -49.7 540 0L0 0Z" fill="#002f51"></path><path d="M0 -462.9C54.1 -466.8 108.1 -470.7 143 -440.2C177.9 -409.7 193.7 -344.7 224.2 -308.6C254.7 -272.4 300 -265.1 330.1 -239.8C360.1 -214.5 375 -171.2 394.6 -128.2C414.1 -85.2 438.5 -42.6 462.9 0L0 0Z" fill="#003a64"></path><path d="M0 -385.7C45.1 -389 90.1 -392.3 119.2 -366.8C148.3 -341.4 161.4 -287.3 186.8 -257.2C212.3 -227 250 -220.9 275.1 -199.8C300.1 -178.7 312.5 -142.6 328.8 -106.8C345.1 -71 365.4 -35.5 385.7 0L0 0Z" fill="#004578"></path><path d="M0 -308.6C36 -311.2 72.1 -313.8 95.4 -293.5C118.6 -273.1 129.1 -229.8 149.5 -205.7C169.8 -181.6 200 -176.8 220.1 -159.9C240.1 -143 250 -114.1 263 -85.5C276.1 -56.8 292.3 -28.4 308.6 0L0 0Z" fill="#00518c"></path><path d="M0 -231.4C27 -233.4 54.1 -235.4 71.5 -220.1C89 -204.8 96.8 -172.4 112.1 -154.3C127.4 -136.2 150 -132.6 165 -119.9C180.1 -107.2 187.5 -85.6 197.3 -64.1C207.1 -42.6 219.2 -21.3 231.4 0L0 0Z" fill="#005da1"></path><path d="M0 -154.3C18 -155.6 36 -156.9 47.7 -146.7C59.3 -136.6 64.6 -114.9 74.7 -102.9C84.9 -90.8 100 -88.4 110 -79.9C120 -71.5 125 -57.1 131.5 -42.7C138 -28.4 146.2 -14.2 154.3 0L0 0Z" fill="#016ab6"></path><path d="M0 -77.1C9 -77.8 18 -78.5 23.8 -73.4C29.7 -68.3 32.3 -57.5 37.4 -51.4C42.5 -45.4 50 -44.2 55 -40C60 -35.7 62.5 -28.5 65.8 -21.4C69 -14.2 73.1 -7.1 77.1 0L0 0Z" fill="#0570c1"></path></g></svg>